<?xml version="1.0" encoding="utf-8"?>
<!-- Generator: Adobe Illustrator 25.2.1, SVG Export Plug-In . SVG Version: 6.00 Build 0)  -->
<svg version="1.1" id="Calque_1" xmlns="http://www.w3.org/2000/svg" xmlns:xlink="http://www.w3.org/1999/xlink" x="0px" y="0px"
	 viewBox="0 0 80 169" style="enable-background:new 0 0 80 169;" xml:space="preserve">
<style type="text/css">
	.st0{fill:#FF9900;}
</style>
<g id="_x23_f07167ff">
	<path class="st0" d="M0.1,2.3c26.7,0,53.3,0,80,0v11c-26.7,0-53.3,0-80,0C0.1,13.3,0.1,2.3,0.1,2.3z"/>
	<path class="st0" d="M0.1,29.3c26.7,0,53.3,0,80,0v12c-26.7,0-53.3,0-80,0C0.1,41.3,0.1,29.3,0.1,29.3z"/>
	<path class="st0" d="M0.1,57.3c26.7,0,53.3,0,80,0v11c-26.7,0-53.3,0-80,0C0.1,68.3,0.1,57.3,0.1,57.3z"/>
	<path class="st0" d="M9.8,92c2.3-1.8,3.9-5.4,7.2-4.8c2.2-0.2,3.3,2.1,4.8,3.3c6.1,5.9,11.8,12.3,18.2,17.9
		c7.5-6.6,14.1-14.1,21.3-21c1.8-0.4,4.2-0.7,5.4,1c2.5,2.7,6.8,5.1,5,9.4c-6.9,7.2-14.4,13.9-21,21.3c6.6,7.4,14.1,14.1,21,21.3
		c0.6,2.1,0.5,4.7-1.5,5.9c-2.3,1.8-3.8,5.4-7.2,4.8c-2,0.3-3-1.7-4.3-2.8c-6.2-6.2-12.4-12.6-18.7-18.6
		c-7.2,6.9-14.1,14.2-21.3,21.2c-4.3,1.8-6.7-2.6-9.4-5c-1.7-1.2-1.4-3.6-1-5.4c6.9-7.2,14.4-13.9,20.9-21.3
		c-6.5-7.5-14.1-14.1-20.9-21.3C7.7,95.9,7.8,93.3,9.8,92z"/>
</g>
</svg>
